<?xml version="1.0" encoding="utf-8"?>
<!-- Generator: Adobe Illustrator 24.3.0, SVG Export Plug-In . SVG Version: 6.00 Build 0)  -->
<svg version="1.1" id="Layer_1" xmlns="http://www.w3.org/2000/svg" xmlns:xlink="http://www.w3.org/1999/xlink" x="0px" y="0px"
	 viewBox="0 0 600 600" style="enable-background:new 0 0 600 600;" xml:space="preserve">
<style type="text/css">
	.st0{fill:#F2CF76;}
	.st1{fill:#D5564D;}
	.st2{fill:none;stroke:#D5564D;stroke-width:9.9213;stroke-linecap:round;stroke-linejoin:round;stroke-miterlimit:10;}
	.st3{fill:none;stroke:#D5564D;stroke-width:8.5039;stroke-linecap:round;stroke-linejoin:round;stroke-miterlimit:10;}
</style>
<rect class="st0" width="600" height="600"/>
<g>
	<path class="st1" d="M76.3,227.4l26-0.7L83,209.3l2-5.4l29.3,27.3l-40,1.6L76.3,227.4z"/>
	<path class="st1" d="M90.9,192.8l31,15.5l-2.4,4.7l-31-15.5L90.9,192.8z"/>
	<path class="st1" d="M110.3,169.7l-7.3,11.7l7.5,4.7l7.1-11.4l4.2,2.6l-7.1,11.4l9.3,5.8l7.3-11.7l4.2,2.6l-10.1,16.2l-29.4-18.4
		L106,167L110.3,169.7z"/>
	<path class="st1" d="M121.8,154.7l23.2,18.5l-3.3,4.1l-23.2-18.5l-5,6.2l-3.9-3.1l13.2-16.6l3.9,3.1L121.8,154.7z"/>
	<path class="st1" d="M152.1,164.2l-25.3-27.1l36.4,2.1l-16.4-17.6l3.9-3.6l25.1,26.9l-36.4-2.1l16.5,17.7L152.1,164.2z"/>
	<path class="st1" d="M192.4,121.2l-12.4,8.1l1.4,9.1l-4.8,3.1l-5.6-40.2l33.8,21.8l-4.8,3.1L192.4,121.2z M187.9,118.2l-10.7-7
		l1.9,12.8L187.9,118.2z"/>
	<path class="st1" d="M206.3,122.1l-7.4-37.3l21.4,20.3l1-29.5l20.2,32l-5,2l-11.2-18l-0.8,24.7l-17.8-17.1l4.6,20.8L206.3,122.1z"
		/>
	<path class="st1" d="M259.6,73.6l-13.5,3l1.9,8.6l13.1-2.9l1.1,4.9L249.1,90l2.4,10.7l13.5-3l1.1,4.9l-18.7,4.2l-7.5-33.9l18.7-4.2
		L259.6,73.6z"/>
	<path class="st1" d="M284.2,73.5c-0.4-0.7-0.9-1.4-1.8-2c-1.2-0.8-2.3-1-3.8-0.9c-3.2,0.3-4.7,2.4-4.5,4.6c0.1,1,0.6,2.8,4.1,3.8
		l3.6,1.1c6.6,2,8.7,5.5,9.1,9.4c0.6,6.6-3.6,11.5-10.1,12.1c-4,0.4-6.5-0.9-8.4-2.7c-2.1-1.9-3.1-4.1-3.5-6.5l5.1-1.6
		c0.2,1.7,0.9,3.3,1.9,4.3c1.1,1.2,2.6,1.8,4.7,1.7c3.2-0.3,5.5-2.9,5.2-6.3c-0.3-3.5-3.2-4.7-5.5-5.4l-3.4-1.1
		c-3-0.9-7.4-2.9-7.9-8.1c-0.4-4.7,2.8-9.4,9.3-10c3.7-0.3,6,0.9,7.2,1.7c1,0.7,2.1,1.8,3,3.2L284.2,73.5z"/>
	<path class="st1" d="M317.6,70.8l-13.8-0.5l-0.3,8.8l13.4,0.4l-0.2,5l-13.4-0.4L303,95l13.8,0.5l-0.2,5l-19.1-0.6l1.1-34.7
		l19.1,0.6L317.6,70.8z"/>
	<path class="st1" d="M354.4,79.6c-0.1-0.8-0.4-1.6-1.1-2.5c-0.9-1.1-1.9-1.7-3.4-2c-3.1-0.7-5.2,0.8-5.7,3c-0.2,1-0.3,2.9,2.7,4.9
		l3.1,2.1c5.7,3.9,6.6,7.9,5.8,11.7c-1.4,6.4-7,9.9-13.3,8.5c-3.9-0.9-5.9-2.8-7.2-5.2c-1.4-2.4-1.7-4.8-1.4-7.2l5.4,0
		c-0.4,1.7-0.1,3.4,0.5,4.6c0.7,1.4,1.9,2.6,4,3c3.1,0.7,6.1-1.1,6.8-4.5c0.8-3.5-1.6-5.5-3.6-6.9l-2.9-2.1c-2.5-1.8-6.1-5-5-10.1
		c1-4.6,5.5-8.2,11.9-6.8c3.7,0.8,5.4,2.6,6.3,3.8c0.7,1,1.4,2.4,1.8,4L354.4,79.6z"/>
	<path class="st1" d="M376.8,83.6l-9.6,28.1l-5-1.7l9.6-28.1l-7.5-2.6l1.6-4.7l20.1,6.9l-1.6,4.7L376.8,83.6z"/>
	<path class="st1" d="M398.3,86.9l-9.4,18.7c-0.8,1.7-1.8,3.7-1.7,5.8c0.1,2,1.4,4.7,4.1,6.1c2.7,1.4,5.6,0.8,7.4-0.3
		c1.7-1.2,2.8-3.2,3.7-4.9l9.4-18.7l4.7,2.4l-10,19.9c-1.2,2.5-3.2,5.2-6.9,6.6c-2.5,0.9-6.2,1.4-10.4-0.7s-6-5.4-6.8-7.9
		c-1.1-3.8-0.1-7,1.2-9.5l10-19.9L398.3,86.9z"/>
	<path class="st1" d="M433.2,106.9c3.9,2.8,7,5.7,8.5,10.3c1.5,5,0.6,10.6-2.8,15.2c-3.4,4.7-8.3,7.3-13.9,7.2
		c-5-0.1-8.3-1.9-12.2-4.8l-5.8-4.2l20.4-28.1L433.2,106.9z M414.1,129.7l1.9,1.3c2.1,1.5,5.1,3.5,8.9,3.4c3-0.1,6.9-1.4,9.6-5.2
		c2.7-3.7,3-7.9,2.1-10.8c-1.2-3.5-4-5.9-6.1-7.4l-1.9-1.3L414.1,129.7z"/>
	<path class="st1" d="M467,142.2l-9.9-9.6l-6.1,6.3l9.6,9.3l-3.5,3.6l-9.6-9.3l-7.6,7.8l9.9,9.6l-3.5,3.6l-13.7-13.3l24.1-24.9
		l13.7,13.3L467,142.2z"/>
	<path class="st1" d="M450.3,167.5l29.6-22.3l-5.9,36l19.2-14.5l3.2,4.2l-29.4,22.2l5.9-36l-19.3,14.6L450.3,167.5z"/>
	<path class="st1" d="M502.6,192.3l-26.1,14.2l-2.5-4.7l26.1-14.2l-3.8-7l4.4-2.4l10.2,18.6l-4.4,2.4L502.6,192.3z"/>
	<path class="st1" d="M500.7,244.3l-4.5-14.1l-9.1-1.1l-1.7-5.5l40.2,5.4l-30.1,26.7l-1.7-5.5L500.7,244.3z M504.8,240.8l9.7-8.5
		l-12.8-1.6L504.8,240.8z"/>
	<path class="st1" d="M524.6,268.3c0.7-0.4,1.4-1,1.9-1.9c0.7-1.2,0.9-2.4,0.6-3.9c-0.5-3.2-2.7-4.5-4.9-4.1c-1,0.2-2.8,0.8-3.5,4.4
		l-0.8,3.7c-1.5,6.7-4.8,9.1-8.7,9.7c-6.5,1.1-11.7-2.8-12.8-9.2c-0.7-4,0.4-6.6,2.1-8.6c1.7-2.2,3.9-3.4,6.2-4l2,5
		c-1.7,0.3-3.2,1.2-4.1,2.2c-1.1,1.2-1.7,2.8-1.3,4.8c0.5,3.2,3.2,5.3,6.7,4.7c3.5-0.6,4.5-3.5,5-5.9l0.8-3.5c0.7-3,2.4-7.6,7.5-8.4
		c4.6-0.8,9.6,2.1,10.7,8.5c0.6,3.7-0.4,6-1.2,7.3c-0.7,1.1-1.7,2.2-3,3.2L524.6,268.3z"/>
	<path class="st1" d="M526.7,296.2c0.8-0.3,1.5-0.8,2.1-1.6c0.8-1.1,1.2-2.3,1.1-3.8c-0.1-3.2-2.1-4.8-4.4-4.7c-1,0-2.8,0.5-4.1,3.9
		l-1.3,3.5c-2.3,6.5-5.9,8.4-9.8,8.6c-6.6,0.3-11.3-4.2-11.6-10.7c-0.2-4,1.2-6.5,3.1-8.3c2-2,4.3-2.9,6.6-3.2l1.4,5.2
		c-1.7,0.1-3.3,0.8-4.4,1.6c-1.2,1-2,2.5-1.9,4.6c0.1,3.2,2.6,5.6,6.1,5.5c3.5-0.1,4.9-2.9,5.7-5.2l1.3-3.4c1.1-2.9,3.3-7.2,8.5-7.4
		c4.7-0.2,9.3,3.3,9.6,9.8c0.2,3.7-1.2,5.9-2.1,7.1c-0.8,1-1.9,2-3.4,2.8L526.7,296.2z"/>
	<path class="st1" d="M513.3,344.1c-10.1-1.2-16.9-9.7-15.7-20.1s9.9-17,20-15.8c10.1,1.2,16.9,9.7,15.7,20.1
		C532.1,338.7,523.4,345.3,513.3,344.1z M513.9,338.9c7.6,0.9,13.6-3.7,14.5-11.1c0.9-7.4-3.8-13.3-11.5-14.2s-13.6,3.7-14.5,11.1
		C501.6,332,506.3,337.9,513.9,338.9z"/>
	<path class="st1" d="M512.4,379.4c4.5-2.7,5.9-6,6.4-7.9c2.2-7.2-1.6-13.7-8.9-15.9c-7-2.1-14,1.3-16.1,8.3
		c-1.2,4-0.1,7.7,1.1,10.1l-6-1.8c-1-3.9-0.4-7.6,0.3-9.9c1.8-6,5.7-9,8.2-10.3c4.8-2.8,9.5-2.9,14.2-1.5c6.1,1.9,9.6,5.7,11.4,9.3
		c2.2,4.4,2.1,8.7,0.7,13.3c-0.9,3-2.4,5.8-5.1,8.1L512.4,379.4z"/>
	<path class="st1" d="M514.2,395.3l-31.8-13.7l2.1-4.9l31.8,13.7L514.2,395.3z"/>
	<path class="st1" d="M476.7,410.2l7.4-12.8l-5.4-7.5l2.9-5l23.2,33.3l-40-4.1l2.9-5L476.7,410.2z M482.1,410.9l12.8,1.4l-7.5-10.5
		L482.1,410.9z"/>
	<path class="st1" d="M481.5,440.4l-23.7-17.9l3.2-4.2l23.7,17.9l4.8-6.3l4,3l-12.8,16.9l-4-3L481.5,440.4z"/>
	<path class="st1" d="M472.5,458.9l-25.8-23.2l3.5-3.9l25.8,23.2L472.5,458.9z"/>
	<path class="st1" d="M427.3,476.9c-6.6-7.7-5.9-18.6,2-25.4s18.8-5.8,25.4,1.9c6.6,7.7,5.9,18.6-2,25.4
		C444.8,485.6,433.9,484.6,427.3,476.9z M431.3,473.4c5,5.8,12.6,6.5,18.2,1.7c5.6-4.8,6.2-12.4,1.2-18.2c-5-5.8-12.6-6.5-18.2-1.7
		C426.8,460,426.3,467.6,431.3,473.4z"/>
	<path class="st1" d="M411.7,466.4l18.3,32.2l-34.9-10.5L407,509l-4.6,2.6l-18.2-32l34.9,10.5l-12-21.1L411.7,466.4z"/>
	<path class="st1" d="M373.8,522.7L362.5,490l5-1.7l11.3,32.8L373.8,522.7z"/>
	<path class="st1" d="M355.7,492.7l7.6,36.2l-30-20.7l4.9,23.5l-5.2,1.1l-7.5-36l30,20.7l-5-23.7L355.7,492.7z"/>
	<path class="st1" d="M298.1,529.7l-0.5-29.7l5.3-0.1l0.5,29.7l8-0.1l0.1,5l-21.2,0.3l-0.1-5L298.1,529.7z"/>
	<path class="st1" d="M275.8,533.5c-4.2-0.5-6.8-1.3-8.9-3.1c-3.5-3-3.3-7.1-3.1-8.6c0.6-5,4-8.2,8.8-8.7l-9-16l6.4,0.7l8.2,15.3
		l0.9,0.1l1.6-14.1l5.3,0.6l-4,34.5L275.8,533.5z M278.5,517.8l-1.7-0.2c-1.4-0.2-7.4-0.7-8,4.8c-0.6,4.9,4,5.9,6.6,6.2l1.8,0.2
		L278.5,517.8z"/>
	<path class="st1" d="M221.8,503.7c2.8-9.8,12.3-15.2,22.3-12.3c10,2.9,15.2,12.5,12.3,22.3c-2.8,9.8-12.3,15.2-22.3,12.3
		C224.1,523.1,219,513.5,221.8,503.7z M226.9,505.2c-2.1,7.4,1.4,14.1,8.6,16.1c7.1,2.1,13.7-1.6,15.9-9c2.1-7.4-1.4-14.1-8.6-16.1
		C235.6,494.1,229,497.8,226.9,505.2z"/>
	<path class="st1" d="M222,485l-16.9,32.9L194.7,483l-11,21.4l-4.7-2.4l16.8-32.7l10.3,34.9l11.1-21.6L222,485z"/>
	<path class="st1" d="M162.4,490.5c-3.9-2.9-6.9-5.9-8.2-10.5c-1.4-5.1-0.4-10.6,3.1-15.2s8.4-7.1,14-7c5,0.2,8.3,2.1,12.1,5
		l5.7,4.3l-20.9,27.7L162.4,490.5z M181.9,468l-1.8-1.4c-2.1-1.6-5.1-3.6-8.8-3.6c-3,0-6.9,1.3-9.7,5c-2.8,3.7-3.2,7.8-2.3,10.8
		c1.1,3.6,3.9,6,5.9,7.5l1.8,1.4L181.9,468z"/>
	<path class="st1" d="M145.1,458l-10.3-10.8l-9.9,9.5l-3.7-3.8l25.1-24l3.7,3.8l-11.5,11l10.3,10.8l11.5-11l3.7,3.8l-25.1,24
		l-3.7-3.8L145.1,458z"/>
	<path class="st1" d="M106.7,425l8,11.3l7.2-5.1l-7.8-10.9l4.1-2.9l7.8,10.9l8.9-6.3l-8-11.3l4.1-2.9l11.1,15.6l-28.2,20.2
		l-11.1-15.6L106.7,425z"/>
	<path class="st1" d="M95.2,415.2l30-17.4l2.7,4.6l-30,17.4L95.2,415.2z"/>
	<path class="st1" d="M121.5,392.8l-37.3,7.3l20.4-21.3l-29.5-1.1l32.1-20.1l2,5l-18,11.1l24.7,0.9l-17.2,17.7l20.8-4.5L121.5,392.8
		z"/>
</g>
<path class="st2" d="M170.1,307.5"/>
<path class="st2" d="M170.1,307.5"/>
<g>
	<path class="st3" d="M250.5,353.5c-2.1,5-6.9,8.6-12.6,8.6c-5.5,0-10.2-3.3-12.4-8.1"/>
	<path class="st1" d="M232,338.5c-2.3,0-4.3-1.9-4.3-4.3v-20c0-2.3,1.9-4.3,4.3-4.3s4.3,1.9,4.3,4.3v20
		C236.3,336.6,234.4,338.5,232,338.5z"/>
	<circle class="st1" cx="214" cy="317" r="5"/>
	<circle class="st1" cx="258" cy="317" r="5"/>
	<path class="st1" d="M299,337.5v-35c0-35.4,28.8-64.3,64.3-64.3h15c35.4,0,64.3,28.8,64.3,64.3v35c0,35.4-28.8,64.3-64.3,64.3h-15
		C327.8,401.8,299,372.9,299,337.5z M363.3,246.8c-30.7,0-55.7,25-55.7,55.7v35c0,30.7,25,55.7,55.7,55.7h15
		c30.7,0,55.7-25,55.7-55.7v-35c0-30.7-25-55.7-55.7-55.7H363.3z"/>
	<path class="st1" d="M400,338.5c2.3,0,4.3-1.9,4.3-4.3v-20c0-2.3-1.9-4.3-4.3-4.3s-4.3,1.9-4.3,4.3v20
		C395.8,336.6,397.7,338.5,400,338.5z"/>
	<circle class="st1" cx="418" cy="317" r="5"/>
	<circle class="st1" cx="374" cy="317" r="5"/>
	<path class="st1" d="M310.6,374.3c-10.2,11.6-25.2,19-41.8,19h-15c-30,0-54.6-23.9-55.7-53.6c0-0.7-0.1-1.4-0.1-2.1v-2.2v-4.5
		v-28.3c0-4.3,0.5-8.6,1.5-12.8c0.1,0,0.2-0.1,0.3-0.1c1-0.2,2-0.5,3-0.7c0,0,0.1,0,0.1,0c1.1-0.2,2.1-0.5,3.2-0.7
		c0.3-0.1,0.5-0.1,0.8-0.2c0.8-0.2,1.7-0.3,2.5-0.5c0.3-0.1,0.6-0.1,0.9-0.2c1.1-0.2,2.1-0.4,3.2-0.6c0,0,0.1,0,0.1,0
		c1.1-0.2,2.2-0.4,3.4-0.6c0.3-0.1,0.6-0.1,0.9-0.1c0.9-0.1,1.7-0.3,2.6-0.4c0.3-0.1,0.6-0.1,0.9-0.2c1.1-0.2,2.2-0.3,3.4-0.5
		c0,0,0.1,0,0.1,0c1.2-0.2,2.3-0.3,3.5-0.5c0.3,0,0.6-0.1,1-0.1c0.9-0.1,1.8-0.2,2.7-0.3c0.3,0,0.7-0.1,1-0.1
		c1.1-0.1,2.3-0.3,3.4-0.4c0,0,0.1,0,0.1,0c1.2-0.1,2.4-0.2,3.6-0.3c0.3,0,0.7-0.1,1-0.1c0.9-0.1,1.8-0.1,2.7-0.2
		c0.4,0,0.7-0.1,1.1-0.1c1.2-0.1,2.4-0.2,3.6-0.2c0,0,0,0,0.1,0c1.2-0.1,2.5-0.1,3.7-0.2c0.4,0,0.7,0,1.1,0c0.9,0,1.9-0.1,2.8-0.1
		c0.4,0,0.7,0,1.1,0c1.3,0,2.5,0,3.8,0c0,0,0,0,0,0c1.3,0,2.5,0,3.8,0c0.4,0,0.7,0,1.1,0c0.9,0,1.9,0,2.8,0.1c0.4,0,0.7,0,1.1,0
		c1.2,0,2.5,0.1,3.7,0.2c0,0,0.1,0,0.1,0c1.2,0.1,2.4,0.1,3.6,0.2c0.3,0,0.7,0,1,0.1c0.9,0.1,1.9,0.1,2.8,0.2c0.3,0,0.7,0.1,1,0.1
		c1.2,0.1,2.4,0.2,3.6,0.3c0,0,0,0,0,0c1.2,0.1,2.4,0.2,3.6,0.4c0.3,0,0.6,0.1,0.9,0.1c0.9,0.1,1.9,0.2,2.8,0.3
		c0.3,0,0.6,0.1,0.8,0.1c2.4,0.3,4.7,0.6,7.1,1c0.1,0,0.1,0,0.2,0c0.8-2.8,1.7-5.6,2.9-8.2c-0.7-0.1-1.4-0.2-2.1-0.3
		c-0.2,0-0.4-0.1-0.6-0.1c-1.1-0.2-2.1-0.3-3.2-0.5c-0.3,0-0.6-0.1-0.9-0.1c-0.8-0.1-1.6-0.2-2.3-0.3c-0.4-0.1-0.8-0.1-1.2-0.2
		c-0.7-0.1-1.4-0.2-2.1-0.3c-0.4,0-0.8-0.1-1.3-0.1c-0.7-0.1-1.4-0.2-2.1-0.2c-0.4,0-0.8-0.1-1.2-0.1c-0.8-0.1-1.6-0.2-2.4-0.2
		c-0.3,0-0.6-0.1-0.9-0.1c-1.1-0.1-2.3-0.2-3.4-0.3c-0.2,0-0.5,0-0.7,0c-0.9-0.1-1.8-0.1-2.7-0.2c-0.4,0-0.8,0-1.2-0.1
		c-0.8,0-1.5-0.1-2.3-0.1c-0.4,0-0.9,0-1.3-0.1c-0.7,0-1.5-0.1-2.2-0.1c-0.4,0-0.9,0-1.3,0c-0.8,0-1.6,0-2.4-0.1c-0.4,0-0.8,0-1.2,0
		c-1.2,0-2.4,0-3.6,0c0,0,0,0,0,0c0,0,0,0,0,0s0,0,0,0c-1.2,0-2.4,0-3.6,0c-0.4,0-0.8,0-1.2,0c-0.8,0-1.6,0-2.4,0.1
		c-0.4,0-0.9,0-1.3,0c-0.7,0-1.5,0.1-2.2,0.1c-0.4,0-0.9,0-1.3,0.1c-0.7,0-1.5,0.1-2.2,0.1c-0.4,0-0.8,0-1.3,0.1
		c-0.9,0.1-1.7,0.1-2.6,0.2c-0.3,0-0.6,0-0.9,0.1c-1.1,0.1-2.3,0.2-3.4,0.3c-0.3,0-0.6,0.1-0.9,0.1c-0.8,0.1-1.7,0.2-2.5,0.2
		c-0.4,0-0.8,0.1-1.2,0.1c-0.7,0.1-1.4,0.1-2.1,0.2c-0.4,0-0.9,0.1-1.3,0.1c-0.7,0.1-1.4,0.2-2.1,0.2c-0.4,0.1-0.8,0.1-1.3,0.2
		c-0.7,0.1-1.4,0.2-2.2,0.3c-0.4,0-0.7,0.1-1.1,0.1c-1,0.1-2,0.3-3,0.4c-0.1,0-0.2,0-0.2,0c-1,0.2-2.1,0.3-3.1,0.5
		c-0.4,0.1-0.7,0.1-1.1,0.2c-0.7,0.1-1.4,0.2-2.1,0.3c-0.4,0.1-0.8,0.1-1.2,0.2c-0.6,0.1-1.3,0.2-1.9,0.3c-0.4,0.1-0.8,0.2-1.2,0.2
		c-0.6,0.1-1.3,0.2-1.9,0.4c-0.4,0.1-0.8,0.2-1.2,0.2c-0.7,0.1-1.4,0.3-2.1,0.4c-0.3,0.1-0.6,0.1-0.9,0.2c-1,0.2-1.9,0.4-2.9,0.6
		c-0.3,0.1-0.6,0.1-0.8,0.2c-0.7,0.2-1.4,0.3-2.1,0.5c-0.4,0.1-0.7,0.2-1.1,0.3c-0.6,0.1-1.2,0.3-1.8,0.4c-0.4,0.1-0.8,0.2-1.1,0.3
		c-0.6,0.1-1.1,0.3-1.7,0.4c-0.4,0.1-0.7,0.2-1.1,0.3c-0.6,0.2-1.2,0.3-1.8,0.5c-0.3,0.1-0.6,0.2-1,0.3c-0.8,0.2-1.6,0.4-2.3,0.6
		c-0.1,0-0.3,0.1-0.4,0.1c-0.9,0.2-1.7,0.5-2.5,0.7c-0.3,0.1-0.6,0.2-0.9,0.3c-0.6,0.2-1.1,0.3-1.7,0.5c-0.3,0.1-0.7,0.2-1,0.3
		c-0.5,0.2-1,0.3-1.6,0.5c-0.3,0.1-0.7,0.2-1,0.3c-0.5,0.2-1,0.3-1.6,0.5c-0.3,0.1-0.6,0.2-0.9,0.3c-0.6,0.2-1.2,0.4-1.7,0.5
		c-0.2,0.1-0.4,0.1-0.7,0.2c-0.8,0.3-1.6,0.5-2.3,0.8c-0.2,0.1-0.3,0.1-0.5,0.2c-0.6,0.2-1.2,0.4-1.8,0.6c-0.3,0.1-0.5,0.2-0.8,0.3
		c-0.5,0.2-1,0.3-1.4,0.5c-0.3,0.1-0.6,0.2-0.8,0.3c-0.5,0.2-0.9,0.3-1.4,0.5c-0.3,0.1-0.5,0.2-0.8,0.3c-0.5,0.2-1,0.3-1.4,0.5
		c-0.2,0.1-0.3,0.1-0.5,0.2l100.6-84.2l57.1,48.1c2.1-2,4.3-3.8,6.6-5.6l0,0l-60.9-51.4c-1.6-1.3-3.9-1.3-5.5,0l-125.5,105
		c0,0,0,0-0.1,0.1c-0.2,0.1-0.3,0.3-0.4,0.4c0,0,0,0-0.1,0.1c-0.1,0.2-0.3,0.4-0.4,0.6c0,0.1-0.1,0.1-0.1,0.2
		c-0.1,0.2-0.1,0.3-0.2,0.5c0,0.1,0,0.1-0.1,0.2c-0.1,0.2-0.1,0.4-0.2,0.6c0,0,0,0,0,0c0,0.2,0,0.4,0,0.6c0,0,0,0.1,0,0.1
		c0,0.1,0,0.2,0,0.3c0.1,2,1.4,3.5,2.4,4.5c5.8,5.8,26.5,16.8,55,25v0.2c0,35.4,28.8,64.3,64.3,64.3h15c18.7,0,35.5-8,47.2-20.8
		C314.1,378.9,312.3,376.6,310.6,374.3z M189.5,302.5v26c-22.5-6.7-39.1-15-46.1-19.7c0,0,0.1,0,0.1-0.1c0.5-0.2,0.9-0.4,1.5-0.7
		c0,0,0,0,0.1,0c0.5-0.2,1.1-0.5,1.7-0.7c0,0,0.1,0,0.1-0.1c0.6-0.3,1.2-0.5,1.9-0.8c0,0,0.1,0,0.1,0c9.1-3.9,23.5-9.5,41.5-14.3
		C189.8,295.5,189.5,299,189.5,302.5z"/>
	<path class="st1" d="M316.8,259.3l-4.9,7.3c8.2,9.7,13.1,22.2,13.1,35.8v35c0,30.7-25,55.7-55.7,55.7h-15
		c-30.7,0-55.7-25-55.7-55.7v-35c0-5,0.7-9.9,1.9-14.6l-9,0.9c-1,4.4-1.5,9-1.5,13.7v35c0,35.4,28.8,64.3,64.3,64.3h15
		c35.4,0,64.3-28.8,64.3-64.3v-35C333.5,285.9,327.2,270.7,316.8,259.3z"/>
	<g>
		<path class="st0" d="M423.4,369.3c-11.3,0-20-10.8-20.1-10.9l-1.6-2l1.9-3.4c1.5-2.6,4.8-4.8,6.2-5.6c0.5-0.2,3-1.1,6.2-1.1
			c5.4,0,10,2.4,13.7,7.2c3.7,4.7,7.9,7.2,12.3,7.2c0,0,0,0,0,0c0.8,0,1.6-0.1,2.4-0.2c-2.1,2.4-7.8,7.5-19.2,8.7
			C424.7,369.2,424.1,369.3,423.4,369.3z M374.3,369.1c-4.9,0-10.1-1.7-15.3-5.2c-1.4-0.9-2.6-1.9-3.6-2.9c0.5,0.1,1,0.1,1.5,0.1
			c3.4,0,6.1-2,10.9-5.7c1.7-1.3,3.9-3,6.5-4.8c3.5-2.5,7-3.8,10.2-3.8c7.2,0,11.9,6.5,11.9,6.5l2,2.9l-1.8,2.1
			c-2,2.4-10.5,7.6-15.3,9.6C379.2,368.7,376.8,369.1,374.3,369.1z"/>
		<path class="st1" d="M416.1,350.6c4.1,0,7.4,1.8,10.4,5.5c2.5,3.2,5,5.3,7.5,6.6c-2.4,1-5.3,1.8-9,2.2c-0.5,0.1-1,0.1-1.5,0.1
			c-8.4,0-15.3-7.6-16.5-9l0.5-0.9c0.8-1.4,2.9-3,4.3-3.8C412.3,351.1,414,350.6,416.1,350.6 M384.6,351c4.7,0,8.1,4.3,8.4,4.7
			l0.1,0.1c-2.2,2-9.2,6.3-13.3,8c-1.7,0.7-3.6,1-5.5,1c-2.9,0-6-0.8-9.1-2.3c1.6-1,3.3-2.3,5.2-3.8c1.8-1.4,3.9-2.9,6.4-4.8
			C379.7,352.1,382.3,351,384.6,351 M416.1,342.1c-4.7,0-8,1.5-8,1.5s-5.6,2.9-8.1,7.3c0,0-5.8-8.3-15.4-8.3c-3.7,0-8,1.2-12.7,4.6
			c-9,6.4-12.2,9.8-15,9.8c-2.5,0-4.6-2.7-10.3-8.1c0,0-1.9,10.9,10.1,18.7c6.8,4.5,12.8,5.9,17.6,5.9c3.6,0,6.5-0.8,8.7-1.6
			c4.9-2,14.2-7.5,17-10.8c0,0,9.8,12.5,23.4,12.5c0.8,0,1.6,0,2.4-0.1c14.8-1.6,21.3-9.1,23-11.6c1.7-2.4,3.8-6.7,4.3-13.4
			c0,0-4.5,8-11,8c-2.7,0-5.8-1.4-9-5.5C427.6,343.8,421.1,342.1,416.1,342.1L416.1,342.1z"/>
	</g>
</g>
<g>
	<g>
		<polygon class="st1" points="77.3,286.6 81.4,282.5 82.7,289.1 83.9,282.5 88,286.6 82.7,301.4 		"/>
	</g>
	<g>
		<polygon class="st1" points="95.1,291.8 100.3,294.4 94.4,297.6 101.1,296.8 98.4,302 82.7,301.4 		"/>
	</g>
	<g>
		<polygon class="st1" points="95.7,310.3 94.8,316 89.9,311.4 92.8,317.5 87,316.6 82.7,301.4 		"/>
	</g>
	<g>
		<polygon class="st1" points="78.3,316.6 72.5,317.5 75.4,311.4 70.5,316 69.6,310.3 82.7,301.4 		"/>
	</g>
	<g>
		<polygon class="st1" points="66.9,302 64.3,296.8 70.9,297.6 65,294.4 70.2,291.8 82.7,301.4 		"/>
	</g>
	<g>
		<polygon class="st1" points="77.3,286.6 81.4,282.5 82.7,289.1 83.9,282.5 88,286.6 82.7,301.4 		"/>
	</g>
</g>
</svg>
